# xmcd
#
# Track frame offsets: 
#        150
#        11549
#        23613
#        37436
#        48087
#        66648
#        79776
#        93282
#        116202
#        133480
#
# Disc length: 2034 seconds
#
# Revision: 0
# Processed by: cddbd v1.5.2PL0 Copyright (c) Steve Scherf et al.
# Submitted via: ExactAudioCopy v1.3
#
DISCID=8b07f00a
DTITLE=Various Artist - Roots of Blues 2 [CD1)
DYEAR=2018
DGENRE=Blues
TTITLE0=John Lee Hooker - Hard Headed Woman
TTITLE1=Ray Charles - C.C. Rider
TTITLE2=Leadbelly - Midnight Special
TTITLE3=Robert Johnson - Love in Vain
TTITLE4=Wilbert Harrison - Just Because
TTITLE5=T Bone Walker - Mean Old World
TTITLE6=Memphis Slim - Everyday I Have The Blues
TTITLE7=Screaming Jay Hawkins - Live Love or Die
TTITLE8=Mississippi John Hurt - Nobody's Business But Mine
TTITLE9=Lightnin’ Hopkins - Good Times
EXTD=
EXTT0=
EXTT1=
EXTT2=
EXTT3=
EXTT4=
EXTT5=
EXTT6=
EXTT7=
EXTT8=
EXTT9=
PLAYORDER=
